# xmcd
#
# Track frame offsets:
#	150
#	29157
#	48129
#	64091
#	84473
#	106655
#	129252
#	147969
#	166431
#	184303
#	207375
#	227752
#	265289
#	281876
#
# Disc length: 3970 seconds
#
# Revision: 0
# Processed by: cddbd v1.5.2PL0 Copyright (c) Steve Scherf et al.
# Submitted via: EasyCDDAExtractor 10.5.1.1
#
DISCID=cd0f800e
DTITLE=Various Artist - 2007 Mainstream Stepper Vol 10
DYEAR=2007
DGENRE=R&B
TTITLE0=Mighty Bop - Lady (BLT Remix)
TTITLE1=Donnie Williams and Park Place - Invisible Man
TTITLE2=Angie Stone - Here We Go Again
TTITLE3=Angie Stone - Sit Down
TTITLE4=Will Downing - After Tonight
TTITLE5=Cunnie Williams - Love Or Drug
TTITLE6=Jabari Grover - I 'll Be Around
TTITLE7=Jabari Grover - Everything's Gonna Be Alright
TTITLE8=Chrisette Michelle - Like A Dream
TTITLE9=Phil Perry  - I Want You
TTITLE10=Ronnie McNeir - I Need You Around
TTITLE11=Opaz - I Don't Want It
TTITLE12=Common - Break My Heart
TTITLE13=Kanye West - Good Life
EXTD=
EXTT0=
EXTT1=
EXTT2=
EXTT3=
EXTT4=
EXTT5=
EXTT6=
EXTT7=
EXTT8=
EXTT9=
EXTT10=
EXTT11=
EXTT12=
EXTT13=
PLAYORDER=
